<svg width="39" height="39" viewBox="0 0 39 39" fill="none" xmlns="http://www.w3.org/2000/svg">
<path d="M19.5 20.8438C20.2421 20.8438 20.8438 20.2421 20.8438 19.5C20.8438 18.7579 20.2421 18.1562 19.5 18.1562C18.7579 18.1562 18.1562 18.7579 18.1562 19.5C18.1562 20.2421 18.7579 20.8438 19.5 20.8438Z" fill="#FF761A"/>
<path d="M19.5 0.6875C9.15313 0.6875 0.6875 9.15313 0.6875 19.5C0.6875 29.8469 9.15313 38.3125 19.5 38.3125C29.8469 38.3125 38.3125 29.8469 38.3125 19.5C38.3125 9.15313 29.8469 0.6875 19.5 0.6875ZM6.0625 20.8438C5.25625 20.8438 4.71875 20.3063 4.71875 19.5C4.71875 11.3031 11.3031 4.71875 19.5 4.71875C20.3063 4.71875 20.8438 5.25625 20.8438 6.0625C20.8438 6.86875 20.3063 7.40625 19.5 7.40625C12.7812 7.40625 7.40625 12.7812 7.40625 19.5C7.40625 20.3063 6.86875 20.8438 6.0625 20.8438ZM10.0938 20.8438C9.2875 20.8438 8.75 20.3063 8.75 19.5C8.75 13.5875 13.5875 8.75 19.5 8.75C20.3063 8.75 20.8438 9.2875 20.8438 10.0938C20.8438 10.9 20.3063 11.4375 19.5 11.4375C15.0656 11.4375 11.4375 15.0656 11.4375 19.5C11.4375 20.3063 10.9 20.8438 10.0938 20.8438ZM19.5 26.2188C15.7375 26.2188 12.7812 23.2625 12.7812 19.5C12.7812 15.7375 15.7375 12.7812 19.5 12.7812C23.2625 12.7812 26.2188 15.7375 26.2188 19.5C26.2188 23.2625 23.2625 26.2188 19.5 26.2188Z" fill="#FF761A"/>
</svg>
