<svg width="393" height="59" viewBox="0 0 393 59" fill="none" xmlns="http://www.w3.org/2000/svg">
<path d="M3.984 47V13.4H18.528C21.536 13.4 24.128 13.896 26.304 14.888C28.48 15.848 30.16 17.24 31.344 19.064C32.528 20.888 33.12 23.064 33.12 25.592C33.12 28.088 32.528 30.248 31.344 32.072C30.16 33.864 28.48 35.24 26.304 36.2C24.128 37.16 21.536 37.64 18.528 37.64H8.304L11.76 34.232V47H3.984ZM25.344 47L16.944 34.808H25.248L33.744 47H25.344ZM11.76 35.096L8.304 31.448H18.096C20.496 31.448 22.288 30.936 23.472 29.912C24.656 28.856 25.248 27.416 25.248 25.592C25.248 23.736 24.656 22.296 23.472 21.272C22.288 20.248 20.496 19.736 18.096 19.736H8.304L11.76 16.04V35.096ZM46.4329 26.936H62.6089V32.984H46.4329V26.936ZM47.0089 40.76H65.2969V47H39.2809V13.4H64.6729V19.64H47.0089V40.76ZM78.444 47V19.736H67.692V13.4H96.972V19.736H86.22V47H78.444ZM101.156 47V13.4H115.7C118.708 13.4 121.3 13.896 123.476 14.888C125.652 15.848 127.332 17.24 128.516 19.064C129.7 20.888 130.292 23.064 130.292 25.592C130.292 28.088 129.7 30.248 128.516 32.072C127.332 33.864 125.652 35.24 123.476 36.2C121.3 37.16 118.708 37.64 115.7 37.64H105.476L108.932 34.232V47H101.156ZM122.516 47L114.116 34.808H122.42L130.916 47H122.516ZM108.932 35.096L105.476 31.448H115.268C117.668 31.448 119.46 30.936 120.644 29.912C121.828 28.856 122.42 27.416 122.42 25.592C122.42 23.736 121.828 22.296 120.644 21.272C119.46 20.248 117.668 19.736 115.268 19.736H105.476L108.932 16.04V35.096Z" fill="#F5F5F5"/>
<path d="M193.208 47.576C190.552 47.576 188.104 47.16 185.864 46.328C183.656 45.464 181.72 44.248 180.056 42.68C178.424 41.112 177.144 39.272 176.216 37.16C175.32 35.048 174.872 32.728 174.872 30.2C174.872 27.672 175.32 25.352 176.216 23.24C177.144 21.128 178.44 19.288 180.104 17.72C181.768 16.152 183.72 14.952 185.96 14.12C188.2 13.256 190.664 12.824 193.352 12.824C196.328 12.824 199 13.32 201.368 14.312C203.768 15.304 205.784 16.744 207.416 18.632L202.424 23.24C201.208 21.96 199.88 21.016 198.44 20.408C197 19.768 195.432 19.448 193.736 19.448C192.104 19.448 190.616 19.704 189.272 20.216C187.928 20.728 186.76 21.464 185.768 22.424C184.808 23.384 184.056 24.52 183.512 25.832C183 27.144 182.744 28.6 182.744 30.2C182.744 31.768 183 33.208 183.512 34.52C184.056 35.832 184.808 36.984 185.768 37.976C186.76 38.936 187.912 39.672 189.224 40.184C190.568 40.696 192.04 40.952 193.64 40.952C195.176 40.952 196.664 40.712 198.104 40.232C199.576 39.72 201 38.872 202.376 37.688L206.792 43.304C204.968 44.68 202.84 45.736 200.408 46.472C198.008 47.208 195.608 47.576 193.208 47.576ZM199.688 42.296V29.672H206.792V43.304L199.688 42.296ZM214.015 47V13.4H228.559C231.567 13.4 234.159 13.896 236.335 14.888C238.511 15.848 240.191 17.24 241.375 19.064C242.559 20.888 243.151 23.064 243.151 25.592C243.151 28.088 242.559 30.248 241.375 32.072C240.191 33.864 238.511 35.24 236.335 36.2C234.159 37.16 231.567 37.64 228.559 37.64H218.335L221.791 34.232V47H214.015ZM235.375 47L226.975 34.808H235.279L243.775 47H235.375ZM221.791 35.096L218.335 31.448H228.127C230.527 31.448 232.319 30.936 233.503 29.912C234.687 28.856 235.279 27.416 235.279 25.592C235.279 23.736 234.687 22.296 233.503 21.272C232.319 20.248 230.527 19.736 228.127 19.736H218.335L221.791 16.04V35.096Z" fill="white"/>
<path d="M339.064 47L324.568 13.4H332.968L345.64 43.16H340.696L353.56 13.4H361.288L346.744 47H339.064ZM371.245 26.936H387.421V32.984H371.245V26.936ZM371.821 40.76H390.109V47H364.093V13.4H389.485V19.64H371.821V40.76Z" fill="white"/>
<path d="M152.5 31.8438C153.242 31.8438 153.844 31.2421 153.844 30.5C153.844 29.7579 153.242 29.1562 152.5 29.1562C151.758 29.1562 151.156 29.7579 151.156 30.5C151.156 31.2421 151.758 31.8438 152.5 31.8438Z" fill="white"/>
<path d="M152.5 11.6875C142.153 11.6875 133.688 20.1531 133.688 30.5C133.688 40.8469 142.153 49.3125 152.5 49.3125C162.847 49.3125 171.312 40.8469 171.312 30.5C171.312 20.1531 162.847 11.6875 152.5 11.6875ZM139.062 31.8438C138.256 31.8438 137.719 31.3063 137.719 30.5C137.719 22.3031 144.303 15.7188 152.5 15.7188C153.306 15.7188 153.844 16.2562 153.844 17.0625C153.844 17.8688 153.306 18.4062 152.5 18.4062C145.781 18.4062 140.406 23.7812 140.406 30.5C140.406 31.3063 139.869 31.8438 139.062 31.8438ZM143.094 31.8438C142.287 31.8438 141.75 31.3063 141.75 30.5C141.75 24.5875 146.587 19.75 152.5 19.75C153.306 19.75 153.844 20.2875 153.844 21.0938C153.844 21.9 153.306 22.4375 152.5 22.4375C148.066 22.4375 144.438 26.0656 144.438 30.5C144.438 31.3063 143.9 31.8438 143.094 31.8438ZM152.5 37.2188C148.738 37.2188 145.781 34.2625 145.781 30.5C145.781 26.7375 148.738 23.7812 152.5 23.7812C156.262 23.7812 159.219 26.7375 159.219 30.5C159.219 34.2625 156.262 37.2188 152.5 37.2188Z" fill="white"/>
<path d="M265.5 31.8438C266.242 31.8438 266.844 31.2421 266.844 30.5C266.844 29.7579 266.242 29.1562 265.5 29.1562C264.758 29.1562 264.156 29.7579 264.156 30.5C264.156 31.2421 264.758 31.8438 265.5 31.8438Z" fill="white"/>
<path d="M265.5 11.6875C255.153 11.6875 246.688 20.1531 246.688 30.5C246.688 40.8469 255.153 49.3125 265.5 49.3125C275.847 49.3125 284.312 40.8469 284.312 30.5C284.312 20.1531 275.847 11.6875 265.5 11.6875ZM252.062 31.8438C251.256 31.8438 250.719 31.3063 250.719 30.5C250.719 22.3031 257.303 15.7188 265.5 15.7188C266.306 15.7188 266.844 16.2562 266.844 17.0625C266.844 17.8688 266.306 18.4062 265.5 18.4062C258.781 18.4062 253.406 23.7812 253.406 30.5C253.406 31.3063 252.869 31.8438 252.062 31.8438ZM256.094 31.8438C255.287 31.8438 254.75 31.3063 254.75 30.5C254.75 24.5875 259.587 19.75 265.5 19.75C266.306 19.75 266.844 20.2875 266.844 21.0938C266.844 21.9 266.306 22.4375 265.5 22.4375C261.066 22.4375 257.438 26.0656 257.438 30.5C257.438 31.3063 256.9 31.8438 256.094 31.8438ZM265.5 37.2188C261.738 37.2188 258.781 34.2625 258.781 30.5C258.781 26.7375 261.738 23.7812 265.5 23.7812C269.262 23.7812 272.219 26.7375 272.219 30.5C272.219 34.2625 269.262 37.2188 265.5 37.2188Z" fill="white"/>
<path d="M305.5 31.8438C306.242 31.8438 306.844 31.2421 306.844 30.5C306.844 29.7579 306.242 29.1562 305.5 29.1562C304.758 29.1562 304.156 29.7579 304.156 30.5C304.156 31.2421 304.758 31.8438 305.5 31.8438Z" fill="white"/>
<path d="M305.5 11.6875C295.153 11.6875 286.688 20.1531 286.688 30.5C286.688 40.8469 295.153 49.3125 305.5 49.3125C315.847 49.3125 324.312 40.8469 324.312 30.5C324.312 20.1531 315.847 11.6875 305.5 11.6875ZM292.062 31.8438C291.256 31.8438 290.719 31.3063 290.719 30.5C290.719 22.3031 297.303 15.7188 305.5 15.7188C306.306 15.7188 306.844 16.2562 306.844 17.0625C306.844 17.8688 306.306 18.4062 305.5 18.4062C298.781 18.4062 293.406 23.7812 293.406 30.5C293.406 31.3063 292.869 31.8438 292.062 31.8438ZM296.094 31.8438C295.287 31.8438 294.75 31.3063 294.75 30.5C294.75 24.5875 299.587 19.75 305.5 19.75C306.306 19.75 306.844 20.2875 306.844 21.0938C306.844 21.9 306.306 22.4375 305.5 22.4375C301.066 22.4375 297.438 26.0656 297.438 30.5C297.438 31.3063 296.9 31.8438 296.094 31.8438ZM305.5 37.2188C301.738 37.2188 298.781 34.2625 298.781 30.5C298.781 26.7375 301.738 23.7812 305.5 23.7812C309.262 23.7812 312.219 26.7375 312.219 30.5C312.219 34.2625 309.262 37.2188 305.5 37.2188Z" fill="white"/>
</svg>
