<svg width="39" height="38" viewBox="0 0 39 38" fill="none" xmlns="http://www.w3.org/2000/svg">
<path d="M19.5 20.1562C20.2421 20.1562 20.8438 19.5546 20.8438 18.8125C20.8438 18.0704 20.2421 17.4688 19.5 17.4688C18.7579 17.4688 18.1562 18.0704 18.1562 18.8125C18.1562 19.5546 18.7579 20.1562 19.5 20.1562Z" fill="black"/>
<path d="M19.5 0C9.15313 0 0.6875 8.46563 0.6875 18.8125C0.6875 29.1594 9.15313 37.625 19.5 37.625C29.8469 37.625 38.3125 29.1594 38.3125 18.8125C38.3125 8.46563 29.8469 0 19.5 0ZM6.0625 20.1562C5.25625 20.1562 4.71875 19.6188 4.71875 18.8125C4.71875 10.6156 11.3031 4.03125 19.5 4.03125C20.3063 4.03125 20.8438 4.56875 20.8438 5.375C20.8438 6.18125 20.3063 6.71875 19.5 6.71875C12.7812 6.71875 7.40625 12.0938 7.40625 18.8125C7.40625 19.6188 6.86875 20.1562 6.0625 20.1562ZM10.0938 20.1562C9.2875 20.1562 8.75 19.6188 8.75 18.8125C8.75 12.9 13.5875 8.0625 19.5 8.0625C20.3063 8.0625 20.8438 8.6 20.8438 9.40625C20.8438 10.2125 20.3063 10.75 19.5 10.75C15.0656 10.75 11.4375 14.3781 11.4375 18.8125C11.4375 19.6188 10.9 20.1562 10.0938 20.1562ZM19.5 25.5312C15.7375 25.5312 12.7812 22.575 12.7812 18.8125C12.7812 15.05 15.7375 12.0938 19.5 12.0938C23.2625 12.0938 26.2188 15.05 26.2188 18.8125C26.2188 22.575 23.2625 25.5312 19.5 25.5312Z" fill="black"/>
</svg>
